<?xml version="1.0" encoding="utf-8"?>
<!-- Generator: Adobe Illustrator 16.0.0, SVG Export Plug-In . SVG Version: 6.00 Build 0)  -->
<!DOCTYPE svg PUBLIC "-//W3C//DTD SVG 1.1//EN" "http://www.w3.org/Graphics/SVG/1.1/DTD/svg11.dtd">
<svg version="1.1" id="Warstwa_1" xmlns="http://www.w3.org/2000/svg" xmlns:xlink="http://www.w3.org/1999/xlink" x="0px" y="0px"
	 width="500px" height="500px" viewBox="0 0 500 500" enable-background="new 0 0 500 500" xml:space="preserve">
<path opacity="0.1" fill="#FFFFFF" d="M33,154.923c0-16.5,11.939-36.753,26.227-45.007l164.672-95.062
	c14.287-8.254,37.729-8.254,52.016,0l164.328,95.062C454.529,118.17,466,138.423,466,154.923v190.153
	c0,16.5-11.439,36.753-25.727,45.008l-164.422,95.062c-14.287,8.255-37.604,8.255-51.891,0L59.195,390.084
	C44.908,381.829,33,361.576,33,345.076V154.923z"/>
<path fill="none" stroke="#93278F" stroke-width="6" stroke-miterlimit="10" d="M33,154.923c0-16.5,11.939-36.753,26.227-45.007
	l164.672-95.062c14.287-8.254,37.729-8.254,52.016,0l164.328,95.062C454.529,118.17,466,138.423,466,154.923v190.153
	c0,16.5-11.439,36.753-25.727,45.008l-164.422,95.062c-14.287,8.255-37.604,8.255-51.891,0L59.195,390.084
	C44.908,381.829,33,361.576,33,345.076V154.923z"/>
</svg>
